HIERARCHY
ROOT Hips
{
	OFFSET 0.000000 0.000000 0.000000
	CHANNELS 6 Xposition Yposition Zposition Zrotation Yrotation Xrotation
	JOINT LHipJoint
	{
		OFFSET 0.000000 0.000000 0.000000
		CHANNELS 3 Zrotation Yrotation Xrotation
		JOINT LeftUpLeg
		{
			OFFSET 1.363060 -1.794630 0.839290
			CHANNELS 3 Zrotation Yrotation Xrotation
			JOINT LeftLeg
			{
				OFFSET 2.448110 -6.726130 0.000000
				CHANNELS 3 Zrotation Yrotation Xrotation
				JOINT LeftFoot
				{
					OFFSET 2.562200 -7.039590 0.000000
					CHANNELS 3 Zrotation Yrotation Xrotation
					JOINT LeftToeBase
					{
						OFFSET 0.157640 -0.433110 2.322550
						CHANNELS 3 Zrotation Yrotation Xrotation
						End Site
						{
							OFFSET 0.000000 0.000000 0.000000
						}
					}
				}
			}
		}
	}
	JOINT RHipJoint
	{
		OFFSET 0.000000 0.000000 0.000000
		CHANNELS 3 Zrotation Yrotation Xrotation
		JOINT RightUpLeg
		{
			OFFSET -1.305520 -1.794630 0.839290
			CHANNELS 3 Zrotation Yrotation Xrotation
			JOINT RightLeg
			{
				OFFSET -2.542530 -6.985550 0.000000
				CHANNELS 3 Zrotation Yrotation Xrotation
				JOINT RightFoot
				{
					OFFSET -2.568260 -7.056230 0.000000
					CHANNELS 3 Zrotation Yrotation Xrotation
					JOINT RightToeBase
					{
						OFFSET -0.164730 -0.452590 2.363150
						CHANNELS 3 Zrotation Yrotation Xrotation
						End Site
						{
							OFFSET 0.000000 0.000000 0.000000
						}
					}
				}
			}
		}
	}
	JOINT LowerBack
	{
		OFFSET 0.000000 0.000000 0.000000
		CHANNELS 3 Zrotation Yrotation Xrotation
		JOINT Spine
		{
			OFFSET 0.028270 2.035590 -0.193380
			CHANNELS 3 Zrotation Yrotation Xrotation
			JOINT Spine1
			{
				OFFSET 0.056720 2.048850 -0.042750
				CHANNELS 3 Zrotation Yrotation Xrotation
				JOINT Neck
				{
					OFFSET 0.000000 0.000000 0.000000
					CHANNELS 3 Zrotation Yrotation Xrotation
					JOINT Neck1
					{
						OFFSET -0.054170 1.746240 0.172020
						CHANNELS 3 Zrotation Yrotation Xrotation
						JOINT Head
						{
							OFFSET 0.104070 1.761360 -0.123970
							CHANNELS 3 Zrotation Yrotation Xrotation
							End Site
							{
								OFFSET 0.000000 0.000000 0.000000
							}
						}
					}
				}
				JOINT LeftShoulder
				{
					OFFSET 0.000000 0.000000 0.000000
					CHANNELS 3 Zrotation Yrotation Xrotation
					JOINT LeftArm
					{
						OFFSET 3.362410 1.200890 -0.311210
						CHANNELS 3 Zrotation Yrotation Xrotation
						JOINT LeftForeArm
						{
							OFFSET 4.983000 -0.000000 -0.000000
							CHANNELS 3 Zrotation Yrotation Xrotation
							JOINT LeftHand
							{
								OFFSET 3.483560 -0.000000 -0.000000
								CHANNELS 3 Zrotation Yrotation Xrotation
								JOINT LeftFingerBase
								{
									OFFSET 0.000000 0.000000 0.000000
									CHANNELS 3 Zrotation Yrotation Xrotation
									JOINT LeftHandIndex1
									{
										OFFSET 0.715260 -0.000000 -0.000000
										CHANNELS 3 Zrotation Yrotation Xrotation
										End Site
										{
											OFFSET 0.000000 0.000000 0.000000
										}
									}
								}
								JOINT LThumb
								{
									OFFSET 0.000000 0.000000 0.000000
									CHANNELS 3 Zrotation Yrotation Xrotation
									End Site
									{
										OFFSET 0.000000 0.000000 0.000000
									}
								}
							}
						}
					}
				}
				JOINT RightShoulder
				{
					OFFSET 0.000000 0.000000 0.000000
					CHANNELS 3 Zrotation Yrotation Xrotation
					JOINT RightArm
					{
						OFFSET -3.136600 1.374050 -0.404650
						CHANNELS 3 Zrotation Yrotation Xrotation
						JOINT RightForeArm
						{
							OFFSET -5.241900 -0.000000 -0.000000
							CHANNELS 3 Zrotation Yrotation Xrotation
							JOINT RightHand
							{
								OFFSET -3.444170 -0.000000 -0.000000
								CHANNELS 3 Zrotation Yrotation Xrotation
								JOINT RightFingerBase
								{
									OFFSET 0.000000 0.000000 0.000000
									CHANNELS 3 Zrotation Yrotation Xrotation
									JOINT RightHandIndex1
									{
										OFFSET -0.622530 -0.000000 -0.000000
										CHANNELS 3 Zrotation Yrotation Xrotation
										End Site
										{
											OFFSET 0.000000 0.000000 0.000000
										}
									}
								}
								JOINT RThumb
								{
									OFFSET 0.000000 0.000000 0.000000
									CHANNELS 3 Zrotation Yrotation Xrotation
									End Site
									{
										OFFSET 0.000000 0.000000 0.000000
									}
								}
							}
						}
					}
				}
			}
		}
	}
}
MOTION
Frames: 4
Frame Time: 0.008333
0.420855 0.333839 8.319760 3.859995 1.060850 4.599767 -3.623236 1.011505 4.279538 -9.017132 -0.569795 34.734360 -0.374367 -15.386451 -6.089211 2.904352 -29.973568 22.460144 0.857146 -1.805514 -10.646712 -4.325091 -0.472040 -7.586176 -31.089737 0.749757 -24.434172 -1.981781 2.027748 9.963675 4.755370 6.581675 8.099958 -1.130678 -1.076797 -6.484168 -15.092266 -5.739737 -5.069782 -0.313860 -3.434558 -1.044725 5.355927 -4.289968 -1.317930 4.258637 -1.582988 -9.308797 5.762159 -1.943307 -1.418537 -1.303427 1.802424 7.532530 -1.979941 1.386768 -0.034668 -12.572131 -19.108789 29.463333 10.443210 -14.448865 -5.353601 0.301803 1.383176 -40.792233 3.173889 -8.054608 -0.131327 -0.817234 0.000000 0.000000 3.302097 -48.586529 16.973562 -3.163811 -3.261590 -0.671062 24.674829 -20.071186 -58.938160 32.763439 -22.690218 4.975338 -2.524302 -0.646408 19.846878 -55.050140 17.868685 -45.969025 1.091218 0.000000 0.000000 -12.645341 -8.769130 25.144728
0.411452 0.341367 8.357349 3.835746 1.184759 4.731700 -3.640695 1.034251 4.289267 -8.984621 -0.534528 35.445999 -0.412104 -15.575694 -6.420635 2.949425 -29.965532 22.482851 0.872137 -1.708912 -10.959380 -4.330348 -0.491676 -7.618018 -31.389196 0.776556 -24.274893 -1.843329 2.217975 9.643034 4.764515 6.104612 8.188828 -1.120919 -1.018386 -6.685781 -15.034747 -5.793248 -5.142552 -0.278539 -3.490270 -1.090134 5.392088 -4.351529 -1.402473 4.239717 -1.586925 -9.467059 5.712660 -1.897089 -1.376695 -1.321387 1.810331 7.530791 -1.941000 1.399216 -0.042046 -12.432945 -19.313202 29.472116 10.600037 -14.782156 -5.447777 0.316655 1.382015 -40.711975 3.056034 -8.022243 -0.023786 -0.831360 0.000000 0.000000 3.189649 -48.492573 16.845615 -3.114979 -3.249445 -0.677618 24.670309 -20.246695 -59.000458 32.586075 -22.555429 4.954856 -2.522014 -0.638574 19.870438 -55.007210 18.076389 -46.321136 1.115886 0.000000 0.000000 -12.562725 -8.675941 25.229858
0.398756 0.346667 8.399055 3.805837 1.301426 4.855612 -3.663118 1.053988 4.297214 -8.961131 -0.500584 36.157536 -0.449498 -15.759820 -6.728807 2.997982 -29.953176 22.519398 0.888585 -1.595619 -11.256763 -4.331260 -0.507490 -7.634031 -31.675642 0.817930 -24.033005 -1.747224 2.355532 9.366027 4.753504 5.678654 8.329645 -1.128312 -0.981562 -7.059687 -14.990177 -5.842046 -5.233811 -0.230095 -3.534513 -1.125035 5.423089 -4.407534 -1.458544 4.234822 -1.591157 -9.627687 5.659671 -1.839697 -1.345890 -1.356598 1.811583 7.546739 -1.868378 1.450744 -0.036109 -12.166272 -19.484100 29.964029 10.834885 -15.090627 -5.526521 0.318691 1.361057 -40.691456 2.895798 -8.047509 0.032497 -0.855347 0.000000 0.000000 2.957293 -48.471924 16.672390 -3.072944 -3.252901 -0.687849 24.622532 -20.441141 -59.091709 32.362576 -22.476833 4.894179 -2.523590 -0.634255 19.868929 -55.193310 18.192003 -46.803799 1.136581 0.000000 0.000000 -12.692878 -8.692116 25.128260
0.380926 0.342957 8.421327 3.771519 1.409636 4.971715 -3.690997 1.070598 4.300792 -8.953247 -0.478000 36.834942 -0.495101 -15.964334 -7.088590 3.038707 -29.973433 22.515800 0.897628 -1.504344 -11.627090 -4.364119 -0.534049 -7.662886 -32.034870 0.778313 -23.945406 -1.707330 2.422203 8.957582 4.707267 5.272475 8.403314 -1.150738 -0.979638 -7.639018 -14.972221 -5.903869 -5.373545 -0.188165 -3.594303 -1.185987 5.430876 -4.473264 -1.540240 4.199205 -1.625460 -9.848521 5.582778 -1.835023 -1.417459 -1.470069 1.766986 7.450211 -1.930777 1.376748 -0.057334 -12.323245 -19.753067 30.472025 11.041434 -15.426641 -5.607685 0.317134 1.337185 -40.629940 2.744756 -8.043740 0.084875 -0.879133 0.000000 0.000000 2.775543 -48.392387 16.579226 -3.018199 -3.249674 -0.695068 24.616837 -20.622936 -59.162926 32.150158 -22.404726 4.830058 -2.524756 -0.630478 19.865582 -55.430363 18.271410 -47.329700 1.155483 0.000000 0.000000 -12.915506 -8.753830 24.944618
